<?xml version="1.0" standalone="no"?>
<!DOCTYPE svg PUBLIC "-//W3C//DTD SVG 20010904//EN"
 "http://www.w3.org/TR/2001/REC-SVG-20010904/DTD/svg10.dtd">
<svg version="1.0" xmlns="http://www.w3.org/2000/svg"
 width="700.000000pt" height="700.000000pt" viewBox="0 0 700.000000 700.000000"
 preserveAspectRatio="xMidYMid meet">
<metadata>
Created by potrace 1.14, written by Peter Selinger 2001-2017
</metadata>
<g transform="translate(0.000000,700.000000) scale(0.100000,-0.100000)"
fill="#000000" stroke="none">
<path d="M2990 6193 c-29 -12 -40 -30 -85 -148 -15 -38 -33 -83 -40 -100 -47
-108 -147 -367 -143 -371 3 -2 570 -3 1260 -2 l1256 3 -117 293 c-65 162 -127
302 -139 315 l-22 22 -971 0 c-720 0 -979 -3 -999 -12z"/>
<path d="M5545 5802 c-42 -8 -55 -41 -55 -140 l0 -92 397 2 398 3 0 75 c1 82
-8 122 -32 142 -13 10 -91 13 -352 13 -185 1 -345 -1 -356 -3z"/>
<path d="M441 5394 c-125 -33 -241 -124 -300 -233 -61 -115 -60 -109 -60 -835
0 -574 2 -653 14 -601 64 290 297 513 585 561 25 4 313 8 640 10 580 1 597 2
654 23 125 45 217 122 275 232 46 85 59 160 56 329 -2 118 -7 156 -24 204 -56
157 -176 268 -337 310 -85 22 -1419 22 -1503 0z m1100 -332 c171 -89 168 -333
-5 -425 -39 -21 -53 -22 -328 -23 -302 -1 -342 4 -397 47 -102 81 -123 233
-46 335 27 36 86 78 121 87 10 2 150 5 310 6 l292 1 53 -28z"/>
<path d="M908 4916 c-44 -33 -35 -116 14 -135 35 -13 518 -12 543 2 50 26 60
83 20 122 l-24 25 -268 0 c-204 -1 -272 -4 -285 -14z"/>
<path d="M2272 5388 c90 -83 169 -234 184 -354 3 -27 8 -58 9 -69 2 -11 4 -23
4 -27 1 -4 1002 -7 2226 -7 2116 0 2225 1 2225 18 0 9 -5 44 -11 77 -23 127
-126 266 -240 324 -125 64 36 60 -2298 60 l-2124 0 25 -22z"/>
<path d="M2498 4772 c-35 -3 -37 -5 -34 -35 2 -18 -5 -64 -15 -104 -73 -293
-303 -480 -610 -497 -90 -4 -159 -30 -213 -78 -55 -48 -91 -106 -105 -170 -7
-31 -11 -546 -11 -1570 l0 -1523 2532 0 c2737 1 2576 -3 2674 52 56 31 116 90
149 147 58 98 55 -5 55 1964 l0 1812 -32 0 c-219 3 -4363 4 -4390 2z m1751
-343 c151 -25 271 -64 416 -134 133 -65 146 -73 260 -156 158 -115 308 -280
411 -449 102 -169 187 -395 208 -555 3 -22 10 -69 15 -105 9 -66 7 -317 -4
-380 -20 -122 -64 -290 -95 -365 -39 -96 -133 -267 -188 -344 -61 -87 -209
-246 -291 -314 -96 -79 -296 -195 -421 -244 -247 -96 -525 -130 -779 -97 -620
82 -1123 498 -1316 1088 -20 60 -38 125 -41 144 -3 19 -8 44 -10 56 -4 20 -7
39 -20 126 -6 42 -6 284 0 320 2 14 7 50 11 80 19 154 92 373 171 516 244 441
649 730 1149 819 17 3 71 8 120 11 50 4 91 8 93 9 9 8 208 -9 311 -26z m2246
-2864 c30 -29 32 -74 6 -106 l-19 -24 -272 -2 -271 -3 -25 25 c-34 34 -33 87
2 114 25 20 39 21 291 21 l264 0 24 -25z m-29 -294 c5 -1 20 -10 32 -21 31
-29 30 -84 -3 -114 l-24 -23 -498 0 c-325 0 -505 3 -518 10 -71 36 -51 141 28
149 25 2 941 1 983 -1z"/>
<path d="M3897 4295 c-1 -2 -31 -5 -67 -9 -269 -26 -550 -142 -755 -311 -402
-333 -589 -827 -510 -1350 19 -123 78 -295 144 -421 219 -416 627 -702 1086
-761 73 -9 305 -10 360 -1 22 4 58 10 80 13 208 32 502 170 661 311 176 156
275 284 369 479 98 202 138 374 139 600 1 172 -5 230 -40 370 -119 470 -467
846 -933 1007 -123 42 -282 69 -426 72 -58 1 -106 2 -108 1z m247 -330 c91
-16 120 -23 201 -52 228 -79 431 -238 560 -437 70 -108 86 -142 128 -266 44
-130 48 -153 52 -315 5 -153 -9 -250 -54 -385 -132 -392 -453 -667 -871 -745
-62 -12 -276 -15 -331 -5 -30 5 -68 12 -85 15 -58 9 -186 55 -267 96 -320 160
-549 475 -600 829 -77 536 238 1049 748 1219 87 29 115 35 220 50 59 8 243 6
299 -4z"/>
<path d="M3899 3816 c-2 -2 -29 -6 -59 -10 -285 -31 -567 -232 -707 -502 -194
-375 -122 -831 179 -1120 190 -184 426 -278 680 -273 520 10 929 421 937 940
4 302 -130 581 -369 766 -165 127 -337 189 -555 198 -56 3 -104 3 -106 1z
m130 -340 c34 -36 34 -74 1 -108 -22 -22 -38 -28 -70 -28 -132 0 -273 -75
-362 -193 -63 -82 -79 -131 -104 -303 -6 -44 -61 -71 -101 -52 -54 26 -64 80
-38 203 58 275 315 494 593 504 50 2 61 -2 81 -23z"/>
<path d="M689 4124 c-226 -43 -406 -229 -444 -459 -7 -42 -8 -2420 -1 -2467
26 -180 181 -346 364 -389 29 -7 168 -12 360 -13 336 -2 366 2 378 48 3 11 6
707 7 1546 l3 1525 21 58 c12 32 35 77 51 100 15 23 31 47 34 53 10 15 -688
14 -773 -2z"/>
</g>
</svg>
