<?xml version="1.0" standalone="no"?>
<!DOCTYPE svg PUBLIC "-//W3C//DTD SVG 20010904//EN"
 "http://www.w3.org/TR/2001/REC-SVG-20010904/DTD/svg10.dtd">
<svg version="1.0" xmlns="http://www.w3.org/2000/svg"
 width="512.000000pt" height="512.000000pt" viewBox="0 0 512.000000 512.000000"
 preserveAspectRatio="xMidYMid meet">
<metadata>
Created by potrace 1.14, written by Peter Selinger 2001-2017
</metadata>
<g transform="translate(0.000000,512.000000) scale(0.100000,-0.100000)"
fill="#000000" stroke="none">
<path d="M2172 4532 c-12 -8 -195 -452 -188 -459 1 -2 419 -2 928 -1 l926 3
-87 216 c-47 119 -92 224 -100 233 -12 15 -78 16 -740 16 -399 0 -732 -4 -739
-8z"/>
<path d="M4027 4232 c-13 -14 -17 -38 -17 -90 l0 -72 295 0 295 0 0 73 c0 112
14 107 -297 107 -239 0 -261 -1 -276 -18z"/>
<path d="M299 3944 c-69 -21 -139 -73 -181 -135 -67 -96 -68 -111 -67 -684 1
-287 5 -497 9 -480 5 17 14 56 20 87 27 137 141 283 270 346 117 58 159 62
632 62 413 0 429 1 485 22 73 27 154 102 190 177 27 54 28 62 28 211 0 149 -1
157 -28 211 -32 67 -109 142 -175 172 -46 22 -55 22 -592 24 -451 2 -553 -1
-591 -13z m817 -243 c131 -59 133 -235 3 -301 -34 -18 -59 -20 -244 -20 -230
0 -250 4 -302 63 -58 66 -56 151 4 218 19 21 49 43 67 48 17 5 121 10 231 10
174 0 205 -2 241 -18z"/>
<path d="M658 3599 c-21 -12 -25 -78 -6 -97 9 -9 71 -12 218 -12 188 0 208 2
223 18 22 24 21 65 -1 85 -16 15 -46 17 -218 17 -116 0 -206 -5 -216 -11z"/>
<path d="M1686 3903 c60 -74 90 -140 106 -230 l12 -73 1634 0 1634 0 -7 43
c-18 114 -69 201 -151 256 -99 65 9 61 -1711 61 l-1563 0 46 -57z"/>
<path d="M1791 3425 c-37 -225 -234 -395 -456 -395 -100 0 -199 -75 -225 -170
-6 -22 -11 -462 -12 -1158 l-3 -1122 1867 0 c1840 0 1868 0 1920 20 65 24 128
85 160 155 l23 50 3 1348 2 1347 -1633 0 -1633 0 -13 -75z m1401 -208 c336
-88 620 -325 768 -640 161 -342 138 -748 -61 -1078 -162 -269 -424 -459 -741
-536 -110 -27 -414 -24 -518 4 -516 142 -860 559 -886 1073 -29 579 377 1085
960 1196 115 22 358 12 478 -19z m1544 -2065 c6 -4 16 -17 22 -28 10 -18 8
-27 -9 -48 l-20 -26 -190 0 c-176 0 -190 1 -209 20 -11 11 -20 27 -20 35 0 8
9 24 20 35 19 19 33 20 208 20 103 0 192 -4 198 -8z m9 -246 c26 -26 25 -51
-3 -73 -12 -10 -104 -13 -384 -13 l-368 0 -16 25 c-19 29 -11 63 19 75 12 5
181 9 375 9 l353 1 24 -24z"/>
<path d="M2780 3139 c-153 -18 -322 -80 -460 -171 -81 -53 -224 -194 -277
-273 -124 -185 -183 -379 -183 -600 0 -221 59 -415 183 -600 53 -79 196 -220
277 -273 264 -173 587 -223 883 -137 356 103 628 382 724 741 23 88 26 118 27
264 0 139 -3 179 -22 253 -43 173 -131 336 -251 469 -114 125 -322 251 -491
297 -80 22 -228 42 -295 40 -22 -1 -74 -5 -115 -10z m300 -254 c262 -61 479
-243 576 -483 45 -113 58 -180 58 -307 0 -218 -68 -390 -217 -551 -158 -169
-360 -256 -596 -255 -359 1 -671 242 -773 597 -32 111 -32 304 0 417 82 287
306 506 592 577 95 23 269 26 360 5z"/>
<path d="M2805 2791 c-231 -38 -422 -178 -527 -384 -91 -182 -91 -442 0 -624
93 -183 256 -316 452 -369 89 -24 272 -24 359 0 371 102 595 482 501 852 -63
249 -259 446 -505 509 -74 19 -213 27 -280 16z m143 -253 c14 -14 15 -47 3
-66 -4 -8 -42 -20 -83 -27 -174 -30 -285 -140 -308 -308 -6 -39 -16 -68 -30
-81 -19 -19 -22 -20 -48 -6 -32 19 -39 55 -22 133 33 162 148 292 305 346 67
23 164 28 183 9z"/>
<path d="M472 3014 c-97 -26 -175 -81 -230 -164 -76 -113 -73 -72 -70 -1100
l3 -915 28 -56 c32 -67 109 -142 175 -172 44 -21 64 -22 313 -25 236 -3 268
-1 283 13 15 15 16 112 16 1102 0 744 3 1106 11 1149 7 39 24 85 45 120 19 31
34 58 34 60 0 2 -125 4 -277 3 -208 0 -291 -4 -331 -15z"/>
</g>
</svg>
